<?xml version="1.0" standalone="no"?>
<!DOCTYPE svg PUBLIC "-//W3C//DTD SVG 20010904//EN"
 "http://www.w3.org/TR/2001/REC-SVG-20010904/DTD/svg10.dtd">
<svg version="1.0" xmlns="http://www.w3.org/2000/svg"
 width="370.000000pt" height="359.000000pt" viewBox="0 0 370.000000 359.000000"
 preserveAspectRatio="xMidYMid meet">
<metadata>
Created by potrace 1.15, written by Peter Selinger 2001-2017
</metadata>
<g transform="translate(0.000000,359.000000) scale(0.100000,-0.100000)"
fill="#000000" stroke="none">
<path d="M975 3100 c-78 -33 -90 -42 -89 -62 6 -98 180 -1395 188 -1404 18
-19 386 -227 392 -222 4 5 -5 87 -46 393 -21 159 -8 472 20 490 8 5 295 -229
375 -306 23 -22 44 -39 48 -39 4 0 6 171 5 381 l-3 381 -390 214 c-214 118
-394 214 -400 213 -5 0 -50 -18 -100 -39z"/>
<path d="M2336 2341 c-35 -36 -38 -42 -28 -69 6 -17 8 -33 5 -35 -3 -3 -2 -11
2 -17 4 -7 10 -67 12 -133 3 -67 6 -123 7 -124 2 -2 30 196 53 370 3 27 2 47
-4 47 -5 0 -26 -18 -47 -39z"/>
<path d="M2667 1788 c-10 -10 -23 -16 -30 -12 -7 4 -9 4 -5 0 11 -13 -15 -33
-34 -28 -12 3 -21 -4 -29 -22 -7 -14 -20 -28 -31 -31 -10 -4 -18 -10 -18 -15
0 -13 -42 -50 -50 -45 -4 3 -13 -2 -20 -10 -7 -8 -19 -15 -26 -15 -8 0 -14 -4
-14 -8 0 -4 -27 -24 -60 -43 -35 -20 -62 -42 -65 -54 -10 -49 -16 -95 -11 -95
3 0 371 210 393 224 3 2 24 168 21 170 -2 2 -11 -6 -21 -16z"/>
<path d="M575 1266 c-85 -39 -151 -134 -176 -255 -17 -84 -7 -254 20 -323 32
-81 81 -141 143 -172 51 -26 54 -26 285 -26 l233 0 0 85 0 85 -200 0 -199 0
-35 30 c-90 79 -96 306 -11 396 l32 34 207 0 206 0 0 85 0 85 -227 0 c-218 0
-230 -1 -278 -24z"/>
<path d="M1920 1205 l0 -85 223 0 c122 0 227 -4 233 -8 38 -25 40 -103 4 -122
-11 -6 -113 -10 -239 -10 l-221 0 0 -90 0 -90 224 0 225 0 21 -27 c26 -33 21
-79 -11 -105 -19 -16 -46 -18 -240 -18 l-219 0 0 -80 0 -80 254 0 c156 0 266
4 283 11 38 14 80 56 106 104 31 57 31 194 1 246 l-22 36 22 34 c17 28 21 49
21 124 0 81 -3 95 -28 138 -15 26 -47 60 -69 75 l-41 27 -264 3 -263 3 0 -86z"/>
<path d="M2794 1271 c-51 -23 -98 -80 -114 -137 -16 -56 -8 -169 13 -211 16
-30 16 -34 -3 -75 -13 -29 -20 -65 -20 -113 0 -118 58 -210 148 -235 21 -5
144 -10 280 -10 l242 0 0 85 0 85 -223 0 c-221 0 -224 0 -245 23 -28 29 -28
76 -2 105 20 21 27 22 245 22 l225 0 0 85 0 85 -229 0 c-226 0 -230 0 -245 22
-9 12 -16 34 -16 48 0 14 7 36 16 48 15 22 19 22 245 22 l229 0 0 85 0 85
-252 0 c-224 0 -258 -3 -294 -19z"/>
<path d="M1152 983 l3 -298 31 -55 c59 -104 171 -156 323 -148 134 6 232 59
289 157 l27 46 3 298 3 297 -85 0 -86 0 0 -257 c0 -235 -2 -261 -19 -289 -56
-91 -236 -88 -298 5 -22 33 -23 41 -23 287 l0 254 -86 0 -85 0 3 -297z"/>
</g>
</svg>
